RobotoExtremo-opsz144-wght400-wdth100-XOPQ27.ufo
<glyph name="numbersign" format="2">
  <advance width="1347"/>
  <unicode hex="0023"/>
  <outline>
    <contour>
      <point x="225.0" y="-20.0" type="line"/>
      <point x="678.4202898550725" y="1466.5797101449275" type="line"/>
      <point x="737.5072463768116" y="1466.5797101449275" type="line"/>
      <point x="284.0869565217391" y="-20.0" type="line"/>
    </contour>
    <contour>
      <point x="618.0869565217391" y="-20.0" type="line"/>
      <point x="1072.5072463768115" y="1466.5797101449275" type="line"/>
      <point x="1130.5942028985507" y="1466.5797101449275" type="line"/>
      <point x="678.1739130434783" y="-20.0" type="line"/>
    </contour>
    <contour>
      <point x="79.0" y="439.0" type="line"/>
      <point x="79.0" y="525.0" type="line"/>
      <point x="1195.1739130434783" y="525.0" type="line"/>
      <point x="1195.1739130434783" y="439.0" type="line"/>
    </contour>
    <contour>
      <point x="161.42028985507247" y="919.5797101449275" type="line"/>
      <point x="161.42028985507247" y="1005.5797101449275" type="line"/>
      <point x="1276.5942028985507" y="1005.5797101449275" type="line"/>
      <point x="1276.5942028985507" y="919.5797101449275" type="line"/>
    </contour>
  </outline>
</glyph>
<glyph name="quotesingle" format="2">
  <advance width="280"/>
  <unicode hex="0027"/>
  <outline>
    <contour>
      <point x="110.34782608695652" y="1113.0" type="line"/>
      <point x="100.0" y="1361.0" type="line"/>
      <point x="100.0" y="1456.0" type="line"/>
      <point x="179.7826086956522" y="1456.0" type="line"/>
      <point x="179.7826086956522" y="1361.0" type="line"/>
      <point x="170.43478260869566" y="1113.0" type="line"/>
    </contour>
  </outline>
</glyph>
<glyph name="comma" format="2">
  <advance width="475"/>
  <unicode hex="002C"/>
  <outline>
    <contour>
      <point x="171.1014492753623" y="-145.0" type="line"/>
      <point x="191.30434782608697" y="-101.0"/>
      <point x="219.0" y="-11.0"/>
      <point x="219.0" y="50.0" type="qcurve" smooth="yes"/>
      <point x="219.0" y="156.0" type="line"/>
      <point x="285.30434782608694" y="156.0" type="line"/>
      <point x="285.30434782608694" y="50.0" type="line" smooth="yes"/>
      <point x="285.30434782608694" y="-25.0"/>
      <point x="254.66666666666666" y="-138.0"/>
      <point x="225.3768115942029" y="-183.0" type="qcurve"/>
    </contour>
  </outline>
</glyph>
<glyph name="three" format="2">
  <advance width="900"/>
  <unicode hex="0033"/>
  <outline>
    <contour>
      <point x="82.73913043478261" y="375.0" type="qcurve" smooth="yes"/>
      <point x="82.73913043478261" y="395.0" type="line"/>
      <point x="140.0" y="395.0" type="line"/>
      <point x="140.0" y="375.0" type="line" smooth="yes"/>
      <point x="140.0" y="226.0"/>
      <point x="317.0" y="76.0"/>
      <point x="441.0" y="76.0" type="qcurve" smooth="yes"/>
      <point x="576.0" y="76.0"/>
      <point x="738.0" y="230.0"/>
      <point x="738.0" y="391.0" type="qcurve" smooth="yes"/>
      <point x="738.0" y="555.0"/>
      <point x="543.231884057971" y="711.0"/>
      <point x="403.0" y="711.0" type="qcurve" smooth="yes"/>
      <point x="251.0" y="711.0" type="line"/>
      <point x="251.0" y="806.0" type="line"/>
      <point x="395.0" y="806.0" type="line" smooth="yes"/>
      <point x="523.7536231884058" y="806.0"/>
      <point x="689.0" y="942.0"/>
      <point x="689.0" y="1109.0" type="qcurve" smooth="yes"/>
      <point x="689.0" y="1245.0"/>
      <point x="555.2463768115942" y="1380.0"/>
      <point x="441.0" y="1380.0" type="qcurve" smooth="yes"/>
      <point x="326.7536231884058" y="1380.0"/>
      <point x="179.0" y="1261.0"/>
      <point x="179.0" y="1105.0" type="qcurve" smooth="yes"/>
      <point x="179.0" y="1085.0" type="line"/>
      <point x="119.73913043478261" y="1085.0" type="line"/>
      <point x="119.73913043478261" y="1105.0" type="line" smooth="yes"/>
      <point x="119.73913043478261" y="1286.0"/>
      <point x="312.47826086956525" y="1476.0"/>
      <point x="441.0" y="1476.0" type="qcurve" smooth="yes"/>
      <point x="572.5217391304348" y="1476.0"/>
      <point x="748.0" y="1291.0"/>
      <point x="748.0" y="1114.0" type="qcurve" smooth="yes"/>
      <point x="748.0" y="966.0"/>
      <point x="640.7826086956521" y="801.0"/>
      <point x="547.0434782608695" y="767.0" type="qcurve"/>
      <point x="547.0434782608695" y="763.0" type="line"/>
      <point x="648.768115942029" y="739.0"/>
      <point x="796.6231884057971" y="554.0"/>
      <point x="796.6231884057971" y="388.0" type="qcurve" smooth="yes"/>
      <point x="796.6231884057971" y="201.0"/>
      <point x="604.1449275362319" y="-20.0"/>
      <point x="441.0" y="-20.0" type="qcurve" smooth="yes"/>
      <point x="281.8550724637681" y="-20.0"/>
      <point x="82.73913043478261" y="193.0"/>
    </contour>
  </outline>
</glyph>
<glyph name="five" format="2">
  <advance width="900"/>
  <unicode hex="0035"/>
  <outline>
    <contour>
      <point x="81.98550724637681" y="370.0" type="qcurve" smooth="yes"/>
      <point x="81.98550724637681" y="390.0" type="line"/>
      <point x="144.0" y="390.0" type="line"/>
      <point x="144.0" y="370.0" type="line" smooth="yes"/>
      <point x="144.0" y="223.9671052631579"/>
      <point x="299.0" y="76.0"/>
      <point x="437.0" y="76.0" type="qcurve" smooth="yes"/>
      <point x="575.0" y="76.0"/>
      <point x="739.0" y="265.0"/>
      <point x="739.0" y="465.0" type="qcurve" smooth="yes"/>
      <point x="739.0" y="665.0"/>
      <point x="581.0" y="820.0"/>
      <point x="460.0" y="820.0" type="qcurve" smooth="yes"/>
      <point x="370.6521739130435" y="820.0"/>
      <point x="221.55072463768116" y="742.0"/>
      <point x="193.08695652173913" y="690.0" type="qcurve"/>
      <point x="132.9855072463768" y="717.0" type="line"/>
      <point x="204.9855072463768" y="1456.0" type="line"/>
      <point x="738.7826086956521" y="1456.0" type="line"/>
      <point x="738.7826086956521" y="1360.0" type="line"/>
      <point x="252.63768115942028" y="1360.0" type="line"/>
      <point x="196.7536231884058" y="814.0" type="line"/>
      <point x="234.6502781793218" y="858.8074475297334"/>
      <point x="386.3478260869565" y="920.0"/>
      <point x="474.463768115942" y="920.0" type="qcurve" smooth="yes"/>
      <point x="603.3768115942029" y="920.0"/>
      <point x="800.1304347826087" y="707.0"/>
      <point x="800.1304347826087" y="465.0" type="qcurve" smooth="yes"/>
      <point x="800.1304347826087" y="223.0"/>
      <point x="598.1449275362319" y="-20.0"/>
      <point x="437.0" y="-20.0" type="qcurve" smooth="yes"/>
      <point x="275.8550724637681" y="-20.0"/>
      <point x="81.98550724637681" y="198.0"/>
    </contour>
  </outline>
</glyph>
<glyph name="eight" format="2">
  <advance width="900"/>
  <unicode hex="0038"/>
  <outline>
    <contour>
      <point x="87.1159420289855" y="377.0" type="qcurve" smooth="yes"/>
      <point x="87.1159420289855" y="525.0"/>
      <point x="234.68505307814314" y="720.8695652173913"/>
      <point x="321.30434782608694" y="745.8695652173913" type="qcurve"/>
      <point x="321.30434782608694" y="749.8695652173913" type="line"/>
      <point x="242.39295692954428" y="780.8695652173913"/>
      <point x="128.9855072463768" y="951.0"/>
      <point x="128.9855072463768" y="1096.0" type="qcurve" smooth="yes"/>
      <point x="128.9855072463768" y="1276.0"/>
      <point x="298.3478260869565" y="1476.0"/>
      <point x="442.6231884057971" y="1476.0" type="qcurve" smooth="yes"/>
      <point x="586.8985507246376" y="1476.0"/>
      <point x="755.0144927536232" y="1265.2463768115942"/>
      <point x="755.0144927536232" y="1096.0" type="qcurve" smooth="yes"/>
      <point x="755.0144927536232" y="943.0"/>
      <point x="630.2302314762528" y="778.8695652173913"/>
      <point x="553.3188405797101" y="751.8695652173913" type="qcurve"/>
      <point x="553.3188405797101" y="747.8695652173913" type="line"/>
      <point x="646.938135327654" y="723.8695652173913"/>
      <point x="796.8840579710145" y="528.0"/>
      <point x="796.8840579710145" y="377.0" type="qcurve" smooth="yes"/>
      <point x="796.8840579710145" y="183.0"/>
      <point x="592.5217391304348" y="-20.0"/>
      <point x="442.6231884057971" y="-20.0" type="qcurve" smooth="yes"/>
      <point x="292.72463768115944" y="-20.0"/>
      <point x="87.1159420289855" y="183.0"/>
    </contour>
    <contour>
      <point x="149.0" y="390.0" type="qcurve" smooth="yes"/>
      <point x="149.0" y="243.0"/>
      <point x="304.6231884057971" y="74.0"/>
      <point x="441.6231884057971" y="74.0" type="qcurve" smooth="yes"/>
      <point x="578.6231884057971" y="74.0"/>
      <point x="734.0" y="244.0"/>
      <point x="734.0" y="389.0" type="qcurve" smooth="yes"/>
      <point x="734.0" y="543.0"/>
      <point x="564.6231884057971" y="698.0"/>
      <point x="441.6231884057971" y="698.0" type="qcurve" smooth="yes"/>
      <point x="318.6231884057971" y="698.0"/>
      <point x="149.0" y="543.0"/>
    </contour>
    <contour>
      <point x="189.0" y="1094.0" type="qcurve" smooth="yes"/>
      <point x="189.0" y="960.6493506493506"/>
      <point x="337.6231884057971" y="792.0"/>
      <point x="441.6231884057971" y="792.0" type="qcurve" smooth="yes"/>
      <point x="545.6231884057971" y="792.0"/>
      <point x="695.0" y="961.0"/>
      <point x="695.0" y="1094.0" type="qcurve" smooth="yes"/>
      <point x="695.0" y="1229.0"/>
      <point x="566.6231884057971" y="1382.0"/>
      <point x="441.6231884057971" y="1382.0" type="qcurve" smooth="yes"/>
      <point x="316.6231884057971" y="1382.0"/>
      <point x="189.0" y="1236.5551839464883"/>
    </contour>
  </outline>
</glyph>
<glyph name="less" format="2">
  <advance width="1194"/>
  <unicode hex="003C"/>
  <outline>
    <contour>
      <point x="993.1304347826087" y="246.7536231884058" type="line"/>
      <point x="192.1304347826087" y="632.7536231884058" type="line"/>
      <point x="192.1304347826087" y="716.7536231884058" type="line"/>
      <point x="993.1304347826087" y="1102.7536231884058" type="line"/>
      <point x="993.1304347826087" y="1011.6376811594203" type="line"/>
      <point x="246.57971014492753" y="672.8695652173913" type="line"/>
      <point x="993.1304347826087" y="334.1014492753623" type="line"/>
    </contour>
  </outline>
</glyph>
<glyph name="A" format="2">
  <advance width="992"/>
  <unicode hex="0041"/>
  <anchor x="482.15942028985506" y="1432.0" name="top"/>
  <outline>
    <contour>
      <point x="-10.0" y="0.0" type="line"/>
      <point x="429.0" y="1455.0" type="line"/>
      <point x="564.2898550724638" y="1455.0" type="line"/>
      <point x="1001.536231884058" y="0.0" type="line"/>
      <point x="941.536231884058" y="0.0" type="line"/>
      <point x="560.0869565217391" y="1270.376811594203" type="line" smooth="yes"/>
      <point x="548.0869565217391" y="1311.376811594203"/>
      <point x="526.695652173913" y="1377.536231884058"/>
      <point x="516.695652173913" y="1415.536231884058" type="qcurve"/>
      <point x="512.9420289855072" y="1415.536231884058" type="line"/>
      <point x="501.81159420289856" y="1377.536231884058"/>
      <point x="479.04347826086956" y="1310.623188405797"/>
      <point x="467.42028985507244" y="1270.376811594203" type="qcurve" smooth="yes"/>
      <point x="97.6231884057971" y="0.0" type="line"/>
    </contour>
    <contour>
      <point x="179.8840579710145" y="418.0" type="line"/>
      <point x="206.1304347826087" y="510.0" type="line"/>
      <point x="810.536231884058" y="510.0" type="line"/>
      <point x="838.536231884058" y="418.0" type="line"/>
    </contour>
  </outline>
</glyph>
<glyph name="E" format="2">
  <advance width="769"/>
  <unicode hex="0045"/>
  <anchor x="451.0" y="1385.2753623188405" name="top"/>
  <outline>
    <contour>
      <point x="130.0" y="0.0" type="line"/>
      <point x="130.0" y="1456.0" type="line"/>
      <point x="762.5507246376811" y="1456.0" type="line"/>
      <point x="762.5507246376811" y="1360.0" type="line"/>
      <point x="188.0" y="1360.0" type="line"/>
      <point x="188.0" y="799.0" type="line"/>
      <point x="664.5507246376811" y="799.0" type="line"/>
      <point x="664.5507246376811" y="703.0" type="line"/>
      <point x="188.0" y="703.0" type="line"/>
      <point x="188.0" y="96.0" type="line"/>
      <point x="772.5507246376811" y="96.0" type="line"/>
      <point x="772.5507246376811" y="0.0" type="line"/>
    </contour>
  </outline>
</glyph>
<glyph name="N" format="2">
  <advance width="1152"/>
  <unicode hex="004E"/>
  <anchor x="546.5072463768116" y="1432.0" name="top"/>
  <outline>
    <contour>
      <point x="130.0" y="0.0" type="line"/>
      <point x="130.0" y="1456.0" type="line"/>
      <point x="230.6231884057971" y="1456.0" type="line"/>
      <point x="862.5072463768116" y="222.0144927536232" type="line" smooth="yes"/>
      <point x="878.1304347826087" y="190.0144927536232"/>
      <point x="907.5072463768116" y="130.0144927536232"/>
      <point x="919.2608695652174" y="99.01449275362319" type="qcurve"/>
      <point x="923.2608695652174" y="99.01449275362319" type="line"/>
      <point x="921.5072463768116" y="133.0144927536232"/>
      <point x="921.3768115942029" y="208.0144927536232"/>
      <point x="921.3768115942029" y="242.0144927536232" type="qcurve" smooth="yes"/>
      <point x="921.3768115942029" y="1456.0" type="line"/>
      <point x="1022.0" y="1456.0" type="line"/>
      <point x="1022.0" y="0.0" type="line"/>
      <point x="920.7536231884058" y="0.0" type="line"/>
      <point x="288.8695652173913" y="1232.2173913043478" type="line" smooth="yes"/>
      <point x="274.2463768115942" y="1262.2173913043478"/>
      <point x="239.8695652173913" y="1328.2173913043478"/>
      <point x="230.8695652173913" y="1359.2173913043478" type="qcurve"/>
      <point x="226.8695652173913" y="1359.2173913043478" type="line"/>
      <point x="228.8695652173913" y="1325.2173913043478"/>
      <point x="231.0" y="1247.2173913043478"/>
      <point x="231.0" y="1212.2173913043478" type="qcurve" smooth="yes"/>
      <point x="231.0" y="0.0" type="line"/>
    </contour>
  </outline>
</glyph>
<glyph name="O" format="2">
  <advance width="1074"/>
  <unicode hex="004F"/>
  <anchor x="534.6231884057971" y="1432.0" name="top"/>
  <outline>
    <contour>
      <point x="86.0" y="689.0" type="qcurve" smooth="yes"/>
      <point x="86.0" y="767.0" type="line" smooth="yes"/>
      <point x="86.0" y="1136.0"/>
      <point x="334.231884057971" y="1476.0"/>
      <point x="536.6231884057971" y="1476.0" type="qcurve" smooth="yes"/>
      <point x="740.0144927536232" y="1476.0"/>
      <point x="988.2463768115942" y="1136.0"/>
      <point x="988.2463768115942" y="767.0" type="qcurve" smooth="yes"/>
      <point x="988.2463768115942" y="689.0" type="line" smooth="yes"/>
      <point x="988.2463768115942" y="320.0"/>
      <point x="740.0144927536232" y="-20.0"/>
      <point x="536.6231884057971" y="-20.0" type="qcurve" smooth="yes"/>
      <point x="334.231884057971" y="-20.0"/>
      <point x="86.0" y="320.0"/>
    </contour>
    <contour>
      <point x="145.6231884057971" y="689.0" type="line" smooth="yes"/>
      <point x="145.6231884057971" y="356.0"/>
      <point x="358.3768115942029" y="76.0"/>
      <point x="536.6231884057971" y="76.0" type="qcurve" smooth="yes"/>
      <point x="714.8695652173913" y="76.0"/>
      <point x="927.6231884057971" y="356.0"/>
      <point x="927.6231884057971" y="689.0" type="qcurve" smooth="yes"/>
      <point x="927.6231884057971" y="767.0" type="line" smooth="yes"/>
      <point x="927.6231884057971" y="1100.0"/>
      <point x="714.8695652173913" y="1380.0"/>
      <point x="536.6231884057971" y="1380.0" type="qcurve" smooth="yes"/>
      <point x="358.3768115942029" y="1380.0"/>
      <point x="145.6231884057971" y="1100.0"/>
      <point x="145.6231884057971" y="767.0" type="qcurve" smooth="yes"/>
    </contour>
  </outline>
</glyph>
<glyph name="P" format="2">
  <advance width="848"/>
  <unicode hex="0050"/>
  <outline>
    <contour>
      <point x="130.0" y="0.0" type="line"/>
      <point x="130.0" y="1456.0" type="line"/>
      <point x="452.0" y="1456.0" type="line" smooth="yes"/>
      <point x="635.6521739130435" y="1456.0"/>
      <point x="803.3768115942029" y="1217.0"/>
      <point x="803.3768115942029" y="1030.0" type="qcurve" smooth="yes"/>
      <point x="803.3768115942029" y="843.0"/>
      <point x="635.6521739130435" y="602.0"/>
      <point x="452.0" y="602.0" type="qcurve" smooth="yes"/>
      <point x="188.0" y="602.0" type="line"/>
      <point x="188.0" y="0.0" type="line"/>
    </contour>
    <contour>
      <point x="188.0" y="698.0" type="line"/>
      <point x="452.0" y="698.0" type="line" smooth="yes"/>
      <point x="614.002908026243" y="698.0"/>
      <point x="744.0" y="893.1055718475073"/>
      <point x="744.0" y="1029.0" type="qcurve" smooth="yes"/>
      <point x="744.0" y="1165.8651026392963"/>
      <point x="614.0" y="1360.0"/>
      <point x="452.0" y="1360.0" type="qcurve" smooth="yes"/>
      <point x="188.0" y="1360.0" type="line"/>
    </contour>
  </outline>
</glyph>
<glyph name="S" format="2">
  <advance width="958"/>
  <unicode hex="0053"/>
  <outline>
    <contour>
      <point x="90.0" y="387.0" type="qcurve" smooth="yes"/>
      <point x="90.0" y="457.0" type="line"/>
      <point x="148.0" y="457.0" type="line"/>
      <point x="148.0" y="386.6231884057971" type="line" smooth="yes"/>
      <point x="148.0" y="229.63866828195808"/>
      <point x="338.3623188405797" y="74.0"/>
      <point x="487.3623188405797" y="74.0" type="qcurve" smooth="yes"/>
      <point x="637.3623188405797" y="74.0"/>
      <point x="818.9710144927536" y="230.47098976109214"/>
      <point x="818.9710144927536" y="357.0" type="qcurve" smooth="yes"/>
      <point x="818.9710144927536" y="477.0"/>
      <point x="679.4347826086956" y="643.8550724637681"/>
      <point x="496.2463768115942" y="713.6086956521739" type="qcurve" smooth="yes"/>
      <point x="316.4492753623188" y="782.231884057971"/>
      <point x="117.7536231884058" y="970.5652173913044"/>
      <point x="117.7536231884058" y="1123.9420289855072" type="qcurve" smooth="yes"/>
      <point x="117.7536231884058" y="1270.0"/>
      <point x="319.4782608695652" y="1476.0"/>
      <point x="483.3623188405797" y="1476.0" type="qcurve" smooth="yes"/>
      <point x="638.6231884057971" y="1476.0"/>
      <point x="847.9565217391304" y="1273.0"/>
      <point x="847.9565217391304" y="1085.0" type="qcurve" smooth="yes"/>
      <point x="847.9565217391304" y="1035.0" type="line"/>
      <point x="789.9565217391304" y="1035.0" type="line"/>
      <point x="789.9565217391304" y="1085.376811594203" type="line" smooth="yes"/>
      <point x="789.9565217391304" y="1222.3745928338762"/>
      <point x="623.3623188405797" y="1382.0"/>
      <point x="483.3623188405797" y="1382.0" type="qcurve" smooth="yes"/>
      <point x="333.3623188405797" y="1382.0"/>
      <point x="175.5072463768116" y="1237.3763440860216"/>
      <point x="175.5072463768116" y="1122.4202898550725" type="qcurve" smooth="yes"/>
      <point x="175.5072463768116" y="991.9710144927536"/>
      <point x="326.72463768115944" y="839.1594202898551"/>
      <point x="509.0289855072464" y="769.1594202898551" type="qcurve" smooth="yes"/>
      <point x="690.3333333333334" y="699.1594202898551"/>
      <point x="877.7246376811594" y="500.0289855072464"/>
      <point x="877.7246376811594" y="360.0" type="qcurve" smooth="yes"/>
      <point x="877.7246376811594" y="189.0"/>
      <point x="656.6231884057971" y="-20.0"/>
      <point x="487.3623188405797" y="-20.0" type="qcurve" smooth="yes"/>
      <point x="316.72463768115944" y="-20.0"/>
      <point x="90.0" y="186.0"/>
    </contour>
  </outline>
</glyph>
<glyph name="grave" format="2">
  <advance width="1035"/>
  <unicode hex="0060"/>
  <anchor x="512.0" y="917.0" name="_top"/>
  <outline>
    <contour>
      <point x="577.0" y="951.0" type="line"/>
      <point x="311.0" y="1207.0" type="line"/>
      <point x="414.0" y="1286.0" type="line"/>
      <point x="650.0" y="1006.0" type="line"/>
    </contour>
  </outline>
</glyph>
<glyph name="c" format="2">
  <advance width="721"/>
  <unicode hex="0063"/>
  <anchor x="396.7536231884058" y="0" name="bottom"/>
  <outline>
    <contour>
      <point x="56.0" y="442.0" type="qcurve" smooth="yes"/>
      <point x="56.0" y="474.0" type="line" smooth="yes"/>
      <point x="56.0" y="691.0"/>
      <point x="236.8695652173913" y="934.0"/>
      <point x="395.7536231884058" y="934.0" type="qcurve" smooth="yes"/>
      <point x="552.1449275362319" y="934.0"/>
      <point x="698.768115942029" y="755.0"/>
      <point x="698.768115942029" y="610.0" type="qcurve" smooth="yes"/>
      <point x="698.768115942029" y="595.0" type="line"/>
      <point x="638.7536231884058" y="595.0" type="line"/>
      <point x="638.7536231884058" y="610.0" type="line" smooth="yes"/>
      <point x="638.7536231884058" y="713.5186721991702"/>
      <point x="528.7536231884058" y="841.0"/>
      <point x="395.7536231884058" y="841.0" type="qcurve" smooth="yes"/>
      <point x="259.5072463768116" y="841.0"/>
      <point x="113.7536231884058" y="654.0928381962865"/>
      <point x="113.7536231884058" y="474.0" type="qcurve" smooth="yes"/>
      <point x="113.7536231884058" y="442.0" type="line" smooth="yes"/>
      <point x="113.7536231884058" y="273.56464379947226"/>
      <point x="254.5072463768116" y="73.0"/>
      <point x="393.7536231884058" y="73.0" type="qcurve" smooth="yes"/>
      <point x="528.7536231884058" y="73.0"/>
      <point x="642.7536231884058" y="211.2629482071713"/>
      <point x="642.7536231884058" y="314.0" type="qcurve" smooth="yes"/>
      <point x="642.7536231884058" y="329.0" type="line"/>
      <point x="698.768115942029" y="329.0" type="line"/>
      <point x="698.768115942029" y="314.0" type="line" smooth="yes"/>
      <point x="698.768115942029" y="178.0"/>
      <point x="552.1449275362319" y="-20.0"/>
      <point x="395.7536231884058" y="-20.0" type="qcurve" smooth="yes"/>
      <point x="240.8695652173913" y="-20.0"/>
      <point x="56.0" y="227.0"/>
    </contour>
  </outline>
</glyph>
<glyph name="j" format="2">
  <advance width="301"/>
  <unicode hex="006A"/>
  <outline>
    <contour>
      <point x="-124.0" y="-415.0" type="qcurve"/>
      <point x="-124.0" y="-324.0" type="line"/>
      <point x="-109.5072463768116" y="-330.0"/>
      <point x="-57.666666666666664" y="-343.0"/>
      <point x="-36.30434782608695" y="-343.0" type="qcurve" smooth="yes"/>
      <point x="37.971014492753625" y="-343.0"/>
      <point x="122.0" y="-242.44915254237287"/>
      <point x="122.0" y="-117.0" type="qcurve" smooth="yes"/>
      <point x="122.0" y="914.0" type="line"/>
      <point x="179.26086956521738" y="914.0" type="line"/>
      <point x="179.26086956521738" y="-90.0" type="line" smooth="yes"/>
      <point x="179.26086956521738" y="-270.0"/>
      <point x="70.10373760488176" y="-436.0"/>
      <point x="-35.608695652173914" y="-436.0" type="qcurve" smooth="yes"/>
      <point x="-60.18710793856803" y="-436.0"/>
      <point x="-109.15300890476037" y="-422.0"/>
    </contour>
    <contour>
      <point x="103.26086956521739" y="1262.0" type="qcurve" smooth="yes"/>
      <point x="103.26086956521739" y="1293.2463768115942"/>
      <point x="128.31884057971016" y="1336.1159420289855"/>
      <point x="151.1304347826087" y="1336.1159420289855" type="qcurve" smooth="yes"/>
      <point x="173.94202898550725" y="1336.1159420289855"/>
      <point x="198.0" y="1294.2463768115942"/>
      <point x="198.0" y="1262.0" type="qcurve" smooth="yes"/>
      <point x="198.0" y="1230.7536231884058"/>
      <point x="172.94202898550725" y="1186.8840579710145"/>
      <point x="150.1304347826087" y="1186.8840579710145" type="qcurve" smooth="yes"/>
      <point x="127.31884057971014" y="1186.8840579710145"/>
      <point x="103.26086956521739" y="1230.7536231884058"/>
    </contour>
  </outline>
</glyph>
<glyph name="m" format="2">
  <advance width="1293"/>
  <unicode hex="006D"/>
  <outline>
    <contour>
      <point x="118.0" y="0.0" type="line"/>
      <point x="118.0" y="914.0" type="line"/>
      <point x="174.7826086956522" y="914.0" type="line"/>
      <point x="171.768115942029" y="777.0" type="line"/>
      <point x="171.26086956521738" y="777.0" type="line"/>
      <point x="217.73913043478262" y="851.0"/>
      <point x="350.07246376811594" y="934.0"/>
      <point x="438.30434782608694" y="934.0" type="qcurve" smooth="yes"/>
      <point x="527.2753623188406" y="934.0"/>
      <point x="646.9710144927536" y="851.0"/>
      <point x="665.5652173913044" y="769.0" type="qcurve"/>
      <point x="665.0579710144928" y="769.0" type="line"/>
      <point x="705.6521739130435" y="849.0"/>
      <point x="854.7391304347826" y="934.0"/>
      <point x="947.3333333333334" y="934.0" type="qcurve" smooth="yes"/>
      <point x="1051.8695652173913" y="934.0"/>
      <point x="1184.7826086956522" y="783.0"/>
      <point x="1184.7826086956522" y="606.0" type="qcurve" smooth="yes"/>
      <point x="1184.7826086956522" y="0.0" type="line"/>
      <point x="1126.5217391304348" y="0.0" type="line"/>
      <point x="1126.5217391304348" y="608.0" type="line" smooth="yes"/>
      <point x="1126.5217391304348" y="738.4071263837275"/>
      <point x="1022.5217391304348" y="841.0"/>
      <point x="926.5217391304348" y="841.0" type="qcurve" smooth="yes"/>
      <point x="842.5217391304348" y="841.0"/>
      <point x="720.8985507246376" y="739.0"/>
      <point x="680.5217391304348" y="660.0" type="qcurve"/>
      <point x="680.5217391304348" y="0.0" type="line"/>
      <point x="622.2608695652174" y="0.0" type="line"/>
      <point x="622.2608695652174" y="608.0" type="line" smooth="yes"/>
      <point x="622.2608695652174" y="737.4483070477589"/>
      <point x="517.2608695652174" y="841.0"/>
      <point x="421.2608695652174" y="841.0" type="qcurve" smooth="yes"/>
      <point x="338.2608695652174" y="841.0"/>
      <point x="216.63768115942028" y="738.0"/>
      <point x="175.26086956521738" y="660.0" type="qcurve"/>
      <point x="175.26086956521738" y="0.0" type="line"/>
    </contour>
  </outline>
</glyph>
<glyph name="n" format="2">
  <advance width="809"/>
  <unicode hex="006E"/>
  <anchor x="431.2608695652174" y="914.0" name="top"/>
  <outline>
    <contour>
      <point x="118.0" y="0.0" type="line"/>
      <point x="118.0" y="914.0" type="line"/>
      <point x="174.7826086956522" y="914.0" type="line"/>
      <point x="171.768115942029" y="780.0" type="line"/>
      <point x="171.26086956521738" y="780.0" type="line"/>
      <point x="211.36231884057972" y="857.0"/>
      <point x="357.07246376811594" y="934.0"/>
      <point x="448.30434782608694" y="934.0" type="qcurve" smooth="yes"/>
      <point x="564.6086956521739" y="934.0"/>
      <point x="700.5217391304348" y="783.0"/>
      <point x="700.5217391304348" y="606.0" type="qcurve" smooth="yes"/>
      <point x="700.5217391304348" y="0.0" type="line"/>
      <point x="643.2608695652174" y="0.0" type="line"/>
      <point x="643.2608695652174" y="598.0" type="line" smooth="yes"/>
      <point x="643.2608695652174" y="727.6640316205534"/>
      <point x="532.2608695652174" y="841.0"/>
      <point x="431.2608695652174" y="841.0" type="qcurve" smooth="yes"/>
      <point x="345.2608695652174" y="841.0"/>
      <point x="216.63768115942028" y="739.0"/>
      <point x="175.26086956521738" y="660.0" type="qcurve"/>
      <point x="175.26086956521738" y="0.0" type="line"/>
    </contour>
  </outline>
</glyph>
<glyph name="s" format="2">
  <advance width="741"/>
  <unicode hex="0073"/>
  <outline>
    <contour>
      <point x="90.0" y="284.0" type="line"/>
      <point x="145.26086956521738" y="284.0" type="line"/>
      <point x="145.26086956521738" y="261.0" type="line" smooth="yes"/>
      <point x="145.26086956521738" y="162.2"/>
      <point x="267.2608695652174" y="71.0"/>
      <point x="374.2608695652174" y="71.0" type="qcurve" smooth="yes"/>
      <point x="482.2608695652174" y="71.0"/>
      <point x="601.1304347826087" y="155.9438202247191"/>
      <point x="601.1304347826087" y="241.2608695652174" type="qcurve" smooth="yes"/>
      <point x="601.1304347826087" y="315.8883248730964"/>
      <point x="503.1895486824603" y="406.16055717655263"/>
      <point x="367.72463768115944" y="447.47826086956525" type="qcurve" smooth="yes"/>
      <point x="229.73422832278297" y="489.15624103782017"/>
      <point x="117.1304347826087" y="598.9868606552754"/>
      <point x="117.1304347826087" y="699.4057971014493" type="qcurve" smooth="yes"/>
      <point x="117.1304347826087" y="804.0"/>
      <point x="259.6376811594203" y="934.0"/>
      <point x="379.0289855072464" y="934.0" type="qcurve" smooth="yes"/>
      <point x="498.7971014492754" y="934.0"/>
      <point x="645.6666666666666" y="793.8550724637681"/>
      <point x="645.6666666666666" y="665.1159420289855" type="qcurve" smooth="yes"/>
      <point x="645.6666666666666" y="645.1159420289855" type="line"/>
      <point x="589.0289855072464" y="645.1159420289855" type="line"/>
      <point x="589.0289855072464" y="663.6086956521739" type="line" smooth="yes"/>
      <point x="589.0289855072464" y="760.1451600403007"/>
      <point x="474.2608695652174" y="844.0"/>
      <point x="379.0289855072464" y="844.0" type="qcurve" smooth="yes"/>
      <point x="284.7971014492754" y="844.0"/>
      <point x="175.3913043478261" y="775.8344370860927"/>
      <point x="175.3913043478261" y="697.7246376811594" type="qcurve" smooth="yes"/>
      <point x="175.3913043478261" y="621.3688993341168"/>
      <point x="281.570992675891" y="539.7242386720428"/>
      <point x="402.71014492753625" y="502.6666666666667" type="qcurve" smooth="yes"/>
      <point x="536.4786555730429" y="460.71149267088043"/>
      <point x="660.5217391304348" y="346.87886653688076"/>
      <point x="660.5217391304348" y="246.231884057971" type="qcurve" smooth="yes"/>
      <point x="660.5217391304348" y="128.0"/>
      <point x="518.768115942029" y="-20.0"/>
      <point x="375.2608695652174" y="-20.0" type="qcurve" smooth="yes"/>
      <point x="233.7536231884058" y="-20.0"/>
      <point x="90.0" y="126.0"/>
      <point x="90.0" y="261.0" type="qcurve" smooth="yes"/>
    </contour>
  </outline>
</glyph>
<glyph name="t" format="2">
  <advance width="468"/>
  <unicode hex="0074"/>
  <outline>
    <contour>
      <point x="3.0" y="820.0" type="line"/>
      <point x="3.0" y="914.0" type="line"/>
      <point x="449.2608695652174" y="914.0" type="line"/>
      <point x="449.2608695652174" y="820.0" type="line"/>
    </contour>
    <contour>
      <point x="166.0" y="252.0" type="qcurve" smooth="yes"/>
      <point x="166.0" y="872.0" type="line"/>
      <point x="166.0" y="883.0" type="line"/>
      <point x="166.0" y="1272.0" type="line"/>
      <point x="223.26086956521738" y="1272.0" type="line"/>
      <point x="223.26086956521738" y="252.0" type="line" smooth="yes"/>
      <point x="223.26086956521738" y="134.5263157894737"/>
      <point x="288.0289855072464" y="72.0"/>
      <point x="356.7971014492754" y="72.0" type="qcurve" smooth="yes"/>
      <point x="378.28985507246375" y="72.0"/>
      <point x="418.52173913043475" y="80.0"/>
      <point x="436.2608695652174" y="90.0" type="qcurve"/>
      <point x="436.2608695652174" y="-3.0" type="line"/>
      <point x="421.27536231884056" y="-10.0"/>
      <point x="378.71014492753625" y="-20.0"/>
      <point x="352.8695652173913" y="-20.0" type="qcurve" smooth="yes"/>
      <point x="264.5507246376812" y="-20.0"/>
      <point x="166.0" y="96.0"/>
    </contour>
  </outline>
</glyph>
<glyph name="u" format="2">
  <advance width="809"/>
  <unicode hex="0075"/>
  <anchor x="400.2608695652174" y="914.0" name="top"/>
  <outline>
    <contour>
      <point x="108.0" y="309.0" type="qcurve" smooth="yes"/>
      <point x="108.0" y="914.0" type="line"/>
      <point x="165.26086956521738" y="914.0" type="line"/>
      <point x="165.26086956521738" y="307.0" type="line" smooth="yes"/>
      <point x="165.26086956521738" y="176.59670781893004"/>
      <point x="275.2608695652174" y="74.0"/>
      <point x="376.2608695652174" y="74.0" type="qcurve" smooth="yes"/>
      <point x="462.2608695652174" y="74.0"/>
      <point x="591.8840579710145" y="175.0"/>
      <point x="632.2608695652174" y="254.0" type="qcurve"/>
      <point x="632.2608695652174" y="914.0" type="line"/>
      <point x="690.5217391304348" y="914.0" type="line"/>
      <point x="690.5217391304348" y="0.0" type="line"/>
      <point x="634.7391304347826" y="0.0" type="line"/>
      <point x="634.7536231884058" y="138.0" type="line"/>
      <point x="636.2608695652174" y="138.0" type="line"/>
      <point x="592.1594202898551" y="62.0"/>
      <point x="450.4492753623188" y="-20.0"/>
      <point x="360.2173913043478" y="-20.0" type="qcurve" smooth="yes"/>
      <point x="242.91304347826087" y="-20.0"/>
      <point x="108.0" y="131.0"/>
    </contour>
  </outline>
</glyph>
<glyph name="y" format="2">
  <advance width="795"/>
  <unicode hex="0079"/>
  <anchor x="400.92753623188406" y="914.0" name="top"/>
  <outline>
    <contour>
      <point x="14.81159420289855" y="-416.0" type="qcurve"/>
      <point x="14.81159420289855" y="-323.0" type="line"/>
      <point x="40.434782608695656" y="-333.0"/>
      <point x="90.92753623188406" y="-344.0"/>
      <point x="116.04347826086956" y="-344.0" type="qcurve" smooth="yes"/>
      <point x="176.55072463768116" y="-344.0"/>
      <point x="273.536231884058" y="-188.31884057971016"/>
      <point x="336.05797101449275" y="2.8840579710144927" type="qcurve"/>
      <point x="336.05797101449275" y="2.8840579710144927" type="line"/>
      <point x="0.0" y="914.0" type="line"/>
      <point x="76.78260869565217" y="914.0" type="line"/>
      <point x="328.69565217391306" y="187.17391304347825" type="line" smooth="yes"/>
      <point x="340.94202898550725" y="150.92753623188406"/>
      <point x="362.95652173913044" y="104.17391304347825"/>
      <point x="380.463768115942" y="62.17391304347826" type="qcurve"/>
      <point x="381.463768115942" y="62.17391304347826" type="line"/>
      <point x="397.9710144927536" y="105.17391304347825"/>
      <point x="417.60869565217394" y="151.55072463768116"/>
      <point x="431.231884057971" y="189.17391304347825" type="qcurve" smooth="yes"/>
      <point x="692.304347826087" y="914.0" type="line"/>
      <point x="798.1594202898551" y="914.0" type="line"/>
      <point x="392.28985507246375" y="-140.0" type="line" smooth="yes"/>
      <point x="335.04347826086956" y="-292.0"/>
      <point x="213.36231884057972" y="-436.0"/>
      <point x="121.27536231884058" y="-436.0" type="qcurve" smooth="yes"/>
      <point x="87.15942028985506" y="-436.0"/>
      <point x="38.68115942028986" y="-425.0"/>
    </contour>
  </outline>
</glyph>
<glyph name="circumflex" format="2">
  <advance width="1024"/>
  <unicode hex="02C6"/>
  <anchor x="471.0" y="1637.0" name="mkmktop_acc"/>
  <outline>
    <contour>
      <point x="567.0" y="1262.0" type="line"/>
      <point x="795.0" y="979.0" type="line"/>
      <point x="661.0" y="979.0" type="line"/>
      <point x="508.0" y="1152.0" type="line"/>
      <point x="357.0" y="979.0" type="line"/>
      <point x="230.0" y="979.0" type="line"/>
      <point x="455.0" y="1262.0" type="line"/>
    </contour>
  </outline>
</glyph>
<glyph name="breve" format="2">
  <advance width="1022"/>
  <unicode hex="02D8"/>
  <anchor x="429.0" y="1606.0" name="mkmktop_acc"/>
  <outline>
    <contour>
      <point x="721.0" y="1229.0" type="qcurve"/>
      <point x="803.0" y="1189.0" type="line"/>
      <point x="770.0" y="1110.0"/>
      <point x="621.0" y="964.0"/>
      <point x="511.0" y="964.0" type="qcurve" smooth="yes"/>
      <point x="413.0" y="964.0"/>
      <point x="256.0" y="1094.0"/>
      <point x="219.0" y="1190.0" type="qcurve"/>
      <point x="309.0" y="1229.0" type="line"/>
      <point x="338.0" y="1180.0"/>
      <point x="443.0" y="1092.0"/>
      <point x="512.0" y="1092.0" type="qcurve" smooth="yes"/>
      <point x="585.0" y="1092.0"/>
      <point x="689.0" y="1178.0"/>
    </contour>
  </outline>
</glyph>
<glyph name="dotaccent" format="2">
  <advance width="1024"/>
  <unicode hex="02D9"/>
  <anchor x="250.0" y="1572.0" name="mkmktop_acc"/>
  <outline>
    <contour>
      <point x="402.0" y="1088.0" type="qcurve" smooth="yes"/>
      <point x="402.0" y="1129.0"/>
      <point x="463.0" y="1196.0"/>
      <point x="512.0" y="1196.0" type="qcurve" smooth="yes"/>
      <point x="561.0" y="1196.0"/>
      <point x="622.0" y="1129.0"/>
      <point x="622.0" y="1088.0" type="qcurve" smooth="yes"/>
      <point x="622.0" y="1047.0"/>
      <point x="561.0" y="981.0"/>
      <point x="512.0" y="981.0" type="qcurve" smooth="yes"/>
      <point x="463.0" y="981.0"/>
      <point x="402.0" y="1047.0"/>
    </contour>
  </outline>
</glyph>
<glyph name="acutecomb.case" format="2">
  <advance width="1024"/>
  <outline>
    <contour>
      <point x="364.0" y="1608.0" type="line"/>
      <point x="644.0" y="1928.0" type="line"/>
      <point x="755.0" y="1841.0" type="line"/>
      <point x="445.0" y="1545.0" type="line"/>
    </contour>
  </outline>
</glyph>
<glyph name="dollar.rvrn" format="2">
  <advance width="869"/>
  <outline>
    <contour>
      <point x="33.0" y="405.69565217391306" type="qcurve" smooth="yes"/>
      <point x="33.0" y="417.3188405797101" type="line"/>
      <point x="137.36231884057972" y="417.3188405797101" type="line"/>
      <point x="137.36231884057972" y="405.69565217391306" type="line" smooth="yes"/>
      <point x="137.36231884057972" y="244.33333333333334"/>
      <point x="297.1014492753623" y="87.34782608695652"/>
      <point x="438.84057971014494" y="87.34782608695652" type="qcurve" smooth="yes"/>
      <point x="580.5797101449275" y="87.34782608695652"/>
      <point x="732.3188405797101" y="236.33333333333334"/>
      <point x="732.3188405797101" y="360.07246376811594" type="qcurve" smooth="yes"/>
      <point x="732.3188405797101" y="469.81159420289856"/>
      <point x="630.2028985507246" y="631.8840579710145"/>
      <point x="433.59420289855075" y="691.7536231884058" type="qcurve" smooth="yes"/>
      <point x="232.9855072463768" y="750.8695652173913"/>
      <point x="58.6231884057971" y="952.8115942028985"/>
      <point x="58.6231884057971" y="1104.6666666666667" type="qcurve" smooth="yes"/>
      <point x="58.6231884057971" y="1266.6521739130435"/>
      <point x="257.231884057971" y="1456.7536231884058"/>
      <point x="428.84057971014494" y="1456.7536231884058" type="qcurve" smooth="yes"/>
      <point x="604.8260869565217" y="1456.7536231884058"/>
      <point x="810.0579710144928" y="1233.6521739130435"/>
      <point x="810.0579710144928" y="1054.4202898550725" type="qcurve" smooth="yes"/>
      <point x="810.0579710144928" y="1042.7971014492753" type="line"/>
      <point x="704.695652173913" y="1042.7971014492753" type="line"/>
      <point x="704.695652173913" y="1054.4202898550725" type="line" smooth="yes"/>
      <point x="704.695652173913" y="1197.159420289855"/>
      <point x="564.9565217391305" y="1366.768115942029"/>
      <point x="428.84057971014494" y="1366.768115942029" type="qcurve" smooth="yes"/>
      <point x="293.1014492753623" y="1366.768115942029"/>
      <point x="164.9855072463768" y="1232.7826086956522"/>
      <point x="164.9855072463768" y="1107.6666666666667" type="qcurve" smooth="yes"/>
      <point x="164.9855072463768" y="999.927536231884"/>
      <point x="284.1014492753623" y="846.8550724637681"/>
      <point x="481.71014492753625" y="786.9855072463768" type="qcurve" smooth="yes"/>
      <point x="681.3188405797101" y="726.1159420289855"/>
      <point x="837.6811594202899" y="515.927536231884"/>
      <point x="837.6811594202899" y="363.07246376811594" type="qcurve" smooth="yes"/>
      <point x="837.6811594202899" y="191.84057971014494"/>
      <point x="621.4492753623189" y="-2.2608695652173916"/>
      <point x="438.84057971014494" y="-2.2608695652173916" type="qcurve" smooth="yes"/>
      <point x="254.231884057971" y="-2.2608695652173916"/>
      <point x="33.0" y="204.84057971014494"/>
    </contour>
    <contour>
      <point x="389.84057971014494" y="-157.53623188405797" type="line"/>
      <point x="389.84057971014494" y="68.0" type="line"/>
      <point x="477.3333333333333" y="68.0" type="line"/>
      <point x="477.3333333333333" y="42.46376811594203" type="line"/>
      <point x="482.84057971014494" y="32.46376811594203" type="line"/>
      <point x="482.84057971014494" y="-157.53623188405797" type="line"/>
    </contour>
    <contour>
      <point x="392.3478260869565" y="1388.0" type="line"/>
      <point x="392.3478260869565" y="1407.304347826087" type="line"/>
      <point x="385.84057971014494" y="1417.304347826087" type="line"/>
      <point x="385.84057971014494" y="1598.463768115942" type="line"/>
      <point x="478.84057971014494" y="1598.463768115942" type="line"/>
      <point x="478.84057971014494" y="1388.0" type="line"/>
    </contour>
  </outline>
</glyph>
<glyph name="hookabovecomb.case" format="2">
  <advance width="1024"/>
  <outline>
    <contour>
      <point x="395.0" y="1537.0" type="line"/>
      <point x="395.0" y="1579.0" type="line" smooth="yes"/>
      <point x="395.0" y="1623.0"/>
      <point x="440.0" y="1665.0"/>
      <point x="537.0" y="1676.0" type="qcurve" smooth="yes"/>
      <point x="581.0" y="1681.0"/>
      <point x="624.0" y="1726.0"/>
      <point x="624.0" y="1767.0" type="qcurve" smooth="yes"/>
      <point x="624.0" y="1801.0"/>
      <point x="574.0" y="1837.0"/>
      <point x="520.0" y="1837.0" type="qcurve" smooth="yes"/>
      <point x="456.0" y="1837.0"/>
      <point x="345.0" y="1809.0"/>
      <point x="335.0" y="1801.0" type="qcurve"/>
      <point x="288.0" y="1892.0" type="line"/>
      <point x="319.0" y="1908.0"/>
      <point x="454.0" y="1943.0"/>
      <point x="526.0" y="1943.0" type="qcurve" smooth="yes"/>
      <point x="631.0" y="1943.0"/>
      <point x="743.0" y="1845.0"/>
      <point x="743.0" y="1762.0" type="qcurve" smooth="yes"/>
      <point x="743.0" y="1676.0"/>
      <point x="628.0" y="1583.0"/>
      <point x="503.0" y="1574.0" type="qcurve"/>
      <point x="503.0" y="1537.0" type="line"/>
    </contour>
  </outline>
</glyph>
<glyph name="tildecombstack.case" format="2">
  <advance width="1024"/>
  <outline>
    <contour>
      <point x="105.0" y="1682.0" type="line"/>
      <point x="142.0" y="1751.0"/>
      <point x="293.0" y="1861.0"/>
      <point x="370.0" y="1861.0" type="qcurve" smooth="yes"/>
      <point x="416.0" y="1861.0"/>
      <point x="496.0" y="1823.0"/>
      <point x="538.0" y="1795.0" type="qcurve" smooth="yes"/>
      <point x="568.0" y="1777.0"/>
      <point x="667.0" y="1729.0"/>
      <point x="714.0" y="1729.0" type="qcurve" smooth="yes"/>
      <point x="760.0" y="1729.0"/>
      <point x="845.0" y="1789.0"/>
      <point x="871.0" y="1828.0" type="qcurve"/>
      <point x="939.0" y="1743.0" type="line"/>
      <point x="897.0" y="1661.0"/>
      <point x="758.0" y="1575.0"/>
      <point x="695.0" y="1575.0" type="qcurve" smooth="yes"/>
      <point x="642.0" y="1575.0"/>
      <point x="538.0" y="1627.0"/>
      <point x="506.0" y="1649.0" type="qcurve" smooth="yes"/>
      <point x="470.0" y="1674.0"/>
      <point x="384.0" y="1709.0"/>
      <point x="351.0" y="1709.0" type="qcurve" smooth="yes"/>
      <point x="298.0" y="1709.0"/>
      <point x="200.0" y="1627.0"/>
      <point x="180.0" y="1597.0" type="qcurve"/>
    </contour>
  </outline>
</glyph>
